<?xml version="1.0" encoding="utf-8"?>
<!-- Generator: Adobe Illustrator 24.1.1, SVG Export Plug-In . SVG Version: 6.00 Build 0)  -->
<svg fill="white" version="1.1" id="Layer_1" xmlns="http://www.w3.org/2000/svg" xmlns:xlink="http://www.w3.org/1999/xlink" x="0px" y="0px"
	 viewBox="-150 -150 800 800" style="enable-background:new 0 0 512 512;" xml:space="preserve">
<g>
	<path d="M0,256c0-70.7,57.3-128,128-128h96c70.7,0,128,57.3,128,128h-64c0-35.3-28.7-64-64-64h-96c-35.3,0-64,28.7-64,64
		s28.7,64,64,64l32,64h-32C57.3,384,0,326.7,0,256z M352,128h32c70.7,0,128,57.3,128,128s-57.3,128-128,128h-96
		c-70.7,0-128-57.3-128-128h64c0,35.3,28.7,64,64,64h96c35.3,0,64-28.7,64-64s-28.7-64-64-64L352,128z"/>
</g>
</svg>
